<svg width="80" height="80" viewBox="0 0 80 80" fill="none" xmlns="http://www.w3.org/2000/svg">
<path fill-rule="evenodd" clip-rule="evenodd" d="M41.3875 4.8125C49.0875 5.29375 56.3062 9.14375 61.6 14.4375C67.8563 21.175 71.225 29.3562 71.225 38.9812C71.225 46.6812 68.3375 53.9 63.525 60.1562C58.7125 65.9312 51.975 70.2625 44.275 71.7062C36.575 73.15 28.875 72.1875 22.1375 68.3375C15.4 64.4875 10.1062 58.7125 7.21875 51.4937C4.33125 44.275 3.85 36.0937 6.25625 28.875C8.6625 21.175 12.9937 14.9187 19.7312 10.5875C25.9875 6.25625 33.6875 4.33125 41.3875 4.8125ZM43.7937 66.8937C50.05 65.45 55.825 62.0812 60.1562 56.7875C64.0062 51.4937 66.4125 45.2375 65.9312 38.5C65.9312 30.8 63.0437 23.1 57.75 17.8062C52.9375 12.9937 47.1625 10.1062 40.425 9.625C34.1687 9.14375 27.4312 10.5875 22.1375 14.4375C16.8437 18.2875 12.9937 23.5812 11.0687 30.3187C9.14375 36.575 9.14375 43.3125 12.0312 49.5687C14.9187 55.825 19.25 60.6375 25.025 64.0062C30.8 67.375 37.5375 68.3375 43.7937 66.8937V66.8937ZM38.0187 36.0937L49.5687 24.0625L52.9375 27.4312L41.3875 39.4625L52.9375 51.4937L49.5687 54.8625L38.0187 42.8312L26.4687 54.8625L23.1 51.4937L34.65 39.4625L23.1 27.4312L26.4687 24.0625L38.0187 36.0937V36.0937Z" fill="white"/>
</svg>
