<svg width="60" height="60" viewBox="0 0 60 60" fill="none" xmlns="http://www.w3.org/2000/svg">
<path d="M33.75 16.6875L26.25 24.1875L18.75 16.6875L15 20.4375L22.5 27.9375L15 35.4375L18.75 39.1875L26.25 31.6875L33.75 39.1875L37.5 35.4375L30 27.9375L37.5 20.4375L33.75 16.6875ZM44.1375 41.55C47.025 37.7625 48.75 33.0375 48.75 27.9375C48.75 15.525 38.6625 5.4375 26.25 5.4375C13.8375 5.4375 3.75 15.525 3.75 27.9375C3.75 40.35 13.8375 50.4375 26.25 50.4375C31.3875 50.4375 36.1125 48.7125 39.9 45.7875L50.3625 56.25L54.6 52.0125L44.1375 41.55ZM25.875 44.4C16.575 44.4 9.0375 36.825 9.0375 27.525C9.0375 18.225 16.6125 10.65 25.875 10.65C35.1375 10.65 42.75 18.225 42.75 27.525C42.75 36.825 35.1375 44.4 25.875 44.4V44.4Z" fill="white"/>
</svg>
